<svg xmlns="http://www.w3.org/2000/svg" viewBox="0 0 64 64"><path fill="#ccc" d="M59.1 63.89H4.9c-2.71 0-4.9-2.19-4.9-4.9V5.01C0 2.3 2.19.11 4.9.11h54.2c2.71 0 4.9 2.19 4.9 4.9v53.98c0 2.71-2.19 4.9-4.9 4.9z"/><path fill="#f4f4f4" d="M4.5 56.51V14.17a2.88 2.88 0 0 1 2.88-2.88h49.24a2.88 2.88 0 0 1 2.88 2.88v42.34a2.88 2.88 0 0 1-2.88 2.88H7.38a2.88 2.88 0 0 1-2.88-2.88z"/><circle cx="6.89" cy="4.9" r="1.59" fill="#cc584c"/><path fill="#ffd464" d="M13.36 4.9c0 .88-.71 1.59-1.59 1.59-.88 0-1.59-.71-1.59-1.59 0-.88.71-1.59 1.59-1.59.88 0 1.59.71 1.59 1.59z"/><circle cx="16.66" cy="4.9" r="1.59" fill="#1a7d57"/><path fill="#f4f4f4" d="M58.07 6.49H21.43c-.35 0-.63-.28-.63-.63V3.94c0-.35.28-.63.63-.63h36.64c.35 0 .63.28.63.63v1.91c0 .36-.28.64-.63.64z"/><circle cx="32" cy="35.34" r="15.07" fill="#d85446"/><path fill="#e9e9e9" d="M24.91 42.43c-.67-.67-.67-1.75 0-2.42l11.76-11.76c.67-.67 1.75-.67 2.42 0 .67.67.67 1.75 0 2.42L27.33 42.43c-.67.67-1.75.67-2.42 0z"/><path fill="#e9e9e9" d="M39.09 42.43c-.67.67-1.75.67-2.42 0L24.91 30.67c-.67-.67-.67-1.75 0-2.42.67-.67 1.75-.67 2.42 0l11.76 11.76c.67.67.67 1.75 0 2.42z"/></svg>